<mxfile host="app.diagrams.net" agent="Mozilla/5.0 (Windows NT 10.0; Win64; x64) AppleWebKit/537.36 (KHTML, like Gecko) Chrome/137.0.0.0 Safari/537.36" version="27.1.6">
  <diagram name="페이지-1" id="CFBRQQ872RlxRylMhx3Q">
    <mxGraphModel dx="488" dy="943" grid="1" gridSize="10" guides="1" tooltips="1" connect="1" arrows="1" fold="1" page="1" pageScale="1" pageWidth="827" pageHeight="1169" math="0" shadow="0">
      <root>
        <mxCell id="0" />
        <mxCell id="1" parent="0" />
        <mxCell id="xZy-GJF1oS632w6AITy--58" value="" style="rounded=0;whiteSpace=wrap;html=1;strokeColor=none;" vertex="1" parent="1">
          <mxGeometry x="660" y="330" width="130" height="140" as="geometry" />
        </mxCell>
        <mxCell id="xZy-GJF1oS632w6AITy--21" value="" style="rounded=0;whiteSpace=wrap;html=1;strokeColor=none;" vertex="1" parent="1">
          <mxGeometry x="137" y="220" width="420" height="230" as="geometry" />
        </mxCell>
        <mxCell id="xZy-GJF1oS632w6AITy--1" value="1" style="ellipse;whiteSpace=wrap;html=1;aspect=fixed;" vertex="1" parent="1">
          <mxGeometry x="150" y="250" width="40" height="40" as="geometry" />
        </mxCell>
        <mxCell id="xZy-GJF1oS632w6AITy--2" value="2" style="ellipse;whiteSpace=wrap;html=1;aspect=fixed;" vertex="1" parent="1">
          <mxGeometry x="250" y="240" width="40" height="40" as="geometry" />
        </mxCell>
        <mxCell id="xZy-GJF1oS632w6AITy--3" value="3" style="ellipse;whiteSpace=wrap;html=1;aspect=fixed;" vertex="1" parent="1">
          <mxGeometry x="170" y="320" width="40" height="40" as="geometry" />
        </mxCell>
        <mxCell id="xZy-GJF1oS632w6AITy--4" value="4" style="ellipse;whiteSpace=wrap;html=1;aspect=fixed;" vertex="1" parent="1">
          <mxGeometry x="260" y="380" width="40" height="40" as="geometry" />
        </mxCell>
        <mxCell id="xZy-GJF1oS632w6AITy--5" value="5" style="ellipse;whiteSpace=wrap;html=1;aspect=fixed;" vertex="1" parent="1">
          <mxGeometry x="320" y="310" width="40" height="40" as="geometry" />
        </mxCell>
        <mxCell id="xZy-GJF1oS632w6AITy--6" value="6" style="ellipse;whiteSpace=wrap;html=1;aspect=fixed;" vertex="1" parent="1">
          <mxGeometry x="340" y="230" width="40" height="40" as="geometry" />
        </mxCell>
        <mxCell id="xZy-GJF1oS632w6AITy--7" value="7" style="ellipse;whiteSpace=wrap;html=1;aspect=fixed;" vertex="1" parent="1">
          <mxGeometry x="394" y="290" width="40" height="40" as="geometry" />
        </mxCell>
        <mxCell id="xZy-GJF1oS632w6AITy--8" value="8" style="ellipse;whiteSpace=wrap;html=1;aspect=fixed;" vertex="1" parent="1">
          <mxGeometry x="490" y="250" width="40" height="40" as="geometry" />
        </mxCell>
        <mxCell id="xZy-GJF1oS632w6AITy--10" value="" style="endArrow=classic;html=1;rounded=0;" edge="1" parent="1" source="xZy-GJF1oS632w6AITy--20" target="xZy-GJF1oS632w6AITy--20">
          <mxGeometry width="50" height="50" relative="1" as="geometry">
            <mxPoint x="478" y="500" as="sourcePoint" />
            <mxPoint x="578" y="410" as="targetPoint" />
            <Array as="points">
              <mxPoint x="478" y="430" />
              <mxPoint x="518" y="380" />
            </Array>
          </mxGeometry>
        </mxCell>
        <mxCell id="xZy-GJF1oS632w6AITy--11" value="" style="endArrow=classic;html=1;rounded=0;" edge="1" parent="1" source="xZy-GJF1oS632w6AITy--8" target="xZy-GJF1oS632w6AITy--7">
          <mxGeometry width="50" height="50" relative="1" as="geometry">
            <mxPoint x="430" y="490" as="sourcePoint" />
            <mxPoint x="480" y="440" as="targetPoint" />
            <Array as="points">
              <mxPoint x="470" y="300" />
            </Array>
          </mxGeometry>
        </mxCell>
        <mxCell id="xZy-GJF1oS632w6AITy--12" value="" style="endArrow=classic;html=1;rounded=0;" edge="1" parent="1" source="xZy-GJF1oS632w6AITy--6" target="xZy-GJF1oS632w6AITy--7">
          <mxGeometry width="50" height="50" relative="1" as="geometry">
            <mxPoint x="430" y="490" as="sourcePoint" />
            <mxPoint x="480" y="440" as="targetPoint" />
          </mxGeometry>
        </mxCell>
        <mxCell id="xZy-GJF1oS632w6AITy--13" value="" style="endArrow=classic;html=1;rounded=0;" edge="1" parent="1" source="xZy-GJF1oS632w6AITy--7" target="xZy-GJF1oS632w6AITy--8">
          <mxGeometry width="50" height="50" relative="1" as="geometry">
            <mxPoint x="430" y="490" as="sourcePoint" />
            <mxPoint x="480" y="440" as="targetPoint" />
            <Array as="points">
              <mxPoint x="460" y="280" />
            </Array>
          </mxGeometry>
        </mxCell>
        <mxCell id="xZy-GJF1oS632w6AITy--14" value="" style="endArrow=classic;html=1;rounded=0;" edge="1" parent="1" source="xZy-GJF1oS632w6AITy--5" target="xZy-GJF1oS632w6AITy--3">
          <mxGeometry width="50" height="50" relative="1" as="geometry">
            <mxPoint x="430" y="490" as="sourcePoint" />
            <mxPoint x="480" y="440" as="targetPoint" />
          </mxGeometry>
        </mxCell>
        <mxCell id="xZy-GJF1oS632w6AITy--15" value="" style="endArrow=classic;html=1;rounded=0;" edge="1" parent="1" source="xZy-GJF1oS632w6AITy--4" target="xZy-GJF1oS632w6AITy--5">
          <mxGeometry width="50" height="50" relative="1" as="geometry">
            <mxPoint x="430" y="490" as="sourcePoint" />
            <mxPoint x="480" y="440" as="targetPoint" />
          </mxGeometry>
        </mxCell>
        <mxCell id="xZy-GJF1oS632w6AITy--16" value="" style="endArrow=classic;html=1;rounded=0;" edge="1" parent="1" source="xZy-GJF1oS632w6AITy--3" target="xZy-GJF1oS632w6AITy--4">
          <mxGeometry width="50" height="50" relative="1" as="geometry">
            <mxPoint x="430" y="490" as="sourcePoint" />
            <mxPoint x="330" y="450" as="targetPoint" />
          </mxGeometry>
        </mxCell>
        <mxCell id="xZy-GJF1oS632w6AITy--17" value="" style="endArrow=classic;html=1;rounded=0;" edge="1" parent="1" source="xZy-GJF1oS632w6AITy--2" target="xZy-GJF1oS632w6AITy--3">
          <mxGeometry width="50" height="50" relative="1" as="geometry">
            <mxPoint x="430" y="490" as="sourcePoint" />
            <mxPoint x="480" y="440" as="targetPoint" />
          </mxGeometry>
        </mxCell>
        <mxCell id="xZy-GJF1oS632w6AITy--18" value="" style="endArrow=classic;html=1;rounded=0;" edge="1" parent="1" source="xZy-GJF1oS632w6AITy--1" target="xZy-GJF1oS632w6AITy--2">
          <mxGeometry width="50" height="50" relative="1" as="geometry">
            <mxPoint x="430" y="490" as="sourcePoint" />
            <mxPoint x="480" y="440" as="targetPoint" />
          </mxGeometry>
        </mxCell>
        <mxCell id="xZy-GJF1oS632w6AITy--20" value="9" style="ellipse;whiteSpace=wrap;html=1;aspect=fixed;" vertex="1" parent="1">
          <mxGeometry x="442" y="360" width="40" height="40" as="geometry" />
        </mxCell>
        <mxCell id="xZy-GJF1oS632w6AITy--24" value="" style="curved=1;endArrow=none;html=1;rounded=0;startFill=0;" edge="1" parent="1">
          <mxGeometry width="50" height="50" relative="1" as="geometry">
            <mxPoint x="270" y="290" as="sourcePoint" />
            <mxPoint x="270" y="290" as="targetPoint" />
            <Array as="points">
              <mxPoint x="180" y="300" />
              <mxPoint x="150" y="360" />
              <mxPoint x="200" y="410" />
              <mxPoint x="280" y="440" />
              <mxPoint x="350" y="390" />
              <mxPoint x="380" y="330" />
              <mxPoint x="340" y="290" />
            </Array>
          </mxGeometry>
        </mxCell>
        <mxCell id="xZy-GJF1oS632w6AITy--25" value="" style="curved=1;endArrow=none;html=1;rounded=0;startFill=0;" edge="1" parent="1">
          <mxGeometry width="50" height="50" relative="1" as="geometry">
            <mxPoint x="390" y="330" as="sourcePoint" />
            <mxPoint x="390" y="330" as="targetPoint" />
            <Array as="points">
              <mxPoint x="400" y="350" />
              <mxPoint x="470" y="330" />
              <mxPoint x="550" y="280" />
              <mxPoint x="530" y="240" />
              <mxPoint x="464" y="250" />
              <mxPoint x="370" y="300" />
            </Array>
          </mxGeometry>
        </mxCell>
        <mxCell id="xZy-GJF1oS632w6AITy--26" value="" style="ellipse;whiteSpace=wrap;html=1;aspect=fixed;fillColor=none;" vertex="1" parent="1">
          <mxGeometry x="430" y="340" width="100" height="100" as="geometry" />
        </mxCell>
        <mxCell id="xZy-GJF1oS632w6AITy--28" value="" style="rounded=0;whiteSpace=wrap;html=1;strokeColor=none;" vertex="1" parent="1">
          <mxGeometry x="137" y="490" width="420" height="230" as="geometry" />
        </mxCell>
        <mxCell id="xZy-GJF1oS632w6AITy--29" value="1" style="ellipse;whiteSpace=wrap;html=1;aspect=fixed;" vertex="1" parent="1">
          <mxGeometry x="150" y="520" width="40" height="40" as="geometry" />
        </mxCell>
        <mxCell id="xZy-GJF1oS632w6AITy--30" value="2" style="ellipse;whiteSpace=wrap;html=1;aspect=fixed;" vertex="1" parent="1">
          <mxGeometry x="250" y="510" width="40" height="40" as="geometry" />
        </mxCell>
        <mxCell id="xZy-GJF1oS632w6AITy--31" value="3" style="ellipse;whiteSpace=wrap;html=1;aspect=fixed;" vertex="1" parent="1">
          <mxGeometry x="170" y="590" width="40" height="40" as="geometry" />
        </mxCell>
        <mxCell id="xZy-GJF1oS632w6AITy--32" value="4" style="ellipse;whiteSpace=wrap;html=1;aspect=fixed;" vertex="1" parent="1">
          <mxGeometry x="260" y="650" width="40" height="40" as="geometry" />
        </mxCell>
        <mxCell id="xZy-GJF1oS632w6AITy--33" value="5" style="ellipse;whiteSpace=wrap;html=1;aspect=fixed;strokeWidth=2;strokeColor=#FF6666;" vertex="1" parent="1">
          <mxGeometry x="320" y="580" width="40" height="40" as="geometry" />
        </mxCell>
        <mxCell id="xZy-GJF1oS632w6AITy--34" value="6" style="ellipse;whiteSpace=wrap;html=1;aspect=fixed;" vertex="1" parent="1">
          <mxGeometry x="340" y="500" width="40" height="40" as="geometry" />
        </mxCell>
        <mxCell id="xZy-GJF1oS632w6AITy--35" value="7" style="ellipse;whiteSpace=wrap;html=1;aspect=fixed;" vertex="1" parent="1">
          <mxGeometry x="394" y="560" width="40" height="40" as="geometry" />
        </mxCell>
        <mxCell id="xZy-GJF1oS632w6AITy--36" value="8" style="ellipse;whiteSpace=wrap;html=1;aspect=fixed;strokeWidth=2;strokeColor=#FF6666;" vertex="1" parent="1">
          <mxGeometry x="490" y="520" width="40" height="40" as="geometry" />
        </mxCell>
        <mxCell id="xZy-GJF1oS632w6AITy--37" value="" style="endArrow=classic;html=1;rounded=0;curved=1;strokeWidth=2;strokeColor=#FF6666;" edge="1" source="xZy-GJF1oS632w6AITy--46" target="xZy-GJF1oS632w6AITy--29" parent="1">
          <mxGeometry width="50" height="50" relative="1" as="geometry">
            <mxPoint x="478" y="770" as="sourcePoint" />
            <mxPoint x="578" y="680" as="targetPoint" />
            <Array as="points">
              <mxPoint x="420" y="700" />
              <mxPoint x="310" y="720" />
              <mxPoint x="190" y="710" />
              <mxPoint x="140" y="630" />
            </Array>
          </mxGeometry>
        </mxCell>
        <mxCell id="xZy-GJF1oS632w6AITy--38" value="" style="endArrow=classic;html=1;rounded=0;strokeWidth=2;strokeColor=#FF6666;" edge="1" source="xZy-GJF1oS632w6AITy--36" target="xZy-GJF1oS632w6AITy--46" parent="1">
          <mxGeometry width="50" height="50" relative="1" as="geometry">
            <mxPoint x="430" y="760" as="sourcePoint" />
            <mxPoint x="480" y="710" as="targetPoint" />
            <Array as="points" />
          </mxGeometry>
        </mxCell>
        <mxCell id="xZy-GJF1oS632w6AITy--39" value="" style="endArrow=classic;html=1;rounded=0;" edge="1" source="xZy-GJF1oS632w6AITy--34" target="xZy-GJF1oS632w6AITy--35" parent="1">
          <mxGeometry width="50" height="50" relative="1" as="geometry">
            <mxPoint x="430" y="760" as="sourcePoint" />
            <mxPoint x="480" y="710" as="targetPoint" />
          </mxGeometry>
        </mxCell>
        <mxCell id="xZy-GJF1oS632w6AITy--40" value="" style="endArrow=classic;html=1;rounded=0;" edge="1" source="xZy-GJF1oS632w6AITy--35" target="xZy-GJF1oS632w6AITy--36" parent="1">
          <mxGeometry width="50" height="50" relative="1" as="geometry">
            <mxPoint x="430" y="760" as="sourcePoint" />
            <mxPoint x="480" y="710" as="targetPoint" />
            <Array as="points">
              <mxPoint x="460" y="550" />
            </Array>
          </mxGeometry>
        </mxCell>
        <mxCell id="xZy-GJF1oS632w6AITy--41" value="" style="endArrow=classic;html=1;rounded=0;strokeWidth=2;strokeColor=#FF6666;" edge="1" source="xZy-GJF1oS632w6AITy--33" target="xZy-GJF1oS632w6AITy--34" parent="1">
          <mxGeometry width="50" height="50" relative="1" as="geometry">
            <mxPoint x="430" y="760" as="sourcePoint" />
            <mxPoint x="480" y="710" as="targetPoint" />
          </mxGeometry>
        </mxCell>
        <mxCell id="xZy-GJF1oS632w6AITy--42" value="" style="endArrow=classic;html=1;rounded=0;" edge="1" source="xZy-GJF1oS632w6AITy--32" target="xZy-GJF1oS632w6AITy--33" parent="1">
          <mxGeometry width="50" height="50" relative="1" as="geometry">
            <mxPoint x="430" y="760" as="sourcePoint" />
            <mxPoint x="480" y="710" as="targetPoint" />
          </mxGeometry>
        </mxCell>
        <mxCell id="xZy-GJF1oS632w6AITy--43" value="" style="endArrow=classic;html=1;rounded=0;" edge="1" source="xZy-GJF1oS632w6AITy--31" target="xZy-GJF1oS632w6AITy--32" parent="1">
          <mxGeometry width="50" height="50" relative="1" as="geometry">
            <mxPoint x="430" y="760" as="sourcePoint" />
            <mxPoint x="330" y="720" as="targetPoint" />
          </mxGeometry>
        </mxCell>
        <mxCell id="xZy-GJF1oS632w6AITy--44" value="" style="endArrow=classic;html=1;rounded=0;" edge="1" source="xZy-GJF1oS632w6AITy--30" target="xZy-GJF1oS632w6AITy--31" parent="1">
          <mxGeometry width="50" height="50" relative="1" as="geometry">
            <mxPoint x="430" y="760" as="sourcePoint" />
            <mxPoint x="480" y="710" as="targetPoint" />
          </mxGeometry>
        </mxCell>
        <mxCell id="xZy-GJF1oS632w6AITy--45" value="" style="endArrow=classic;html=1;rounded=0;" edge="1" source="xZy-GJF1oS632w6AITy--29" target="xZy-GJF1oS632w6AITy--30" parent="1">
          <mxGeometry width="50" height="50" relative="1" as="geometry">
            <mxPoint x="430" y="760" as="sourcePoint" />
            <mxPoint x="480" y="710" as="targetPoint" />
          </mxGeometry>
        </mxCell>
        <mxCell id="xZy-GJF1oS632w6AITy--46" value="9" style="ellipse;whiteSpace=wrap;html=1;aspect=fixed;strokeWidth=2;strokeColor=#FF6666;" vertex="1" parent="1">
          <mxGeometry x="442" y="630" width="40" height="40" as="geometry" />
        </mxCell>
        <mxCell id="xZy-GJF1oS632w6AITy--47" value="" style="curved=1;endArrow=none;html=1;rounded=0;startFill=0;" edge="1" parent="1">
          <mxGeometry width="50" height="50" relative="1" as="geometry">
            <mxPoint x="270" y="560" as="sourcePoint" />
            <mxPoint x="270" y="560" as="targetPoint" />
            <Array as="points">
              <mxPoint x="180" y="570" />
              <mxPoint x="150" y="630" />
              <mxPoint x="200" y="680" />
              <mxPoint x="280" y="710" />
              <mxPoint x="350" y="660" />
              <mxPoint x="380" y="600" />
              <mxPoint x="340" y="560" />
            </Array>
          </mxGeometry>
        </mxCell>
        <mxCell id="xZy-GJF1oS632w6AITy--48" value="" style="curved=1;endArrow=none;html=1;rounded=0;startFill=0;" edge="1" parent="1">
          <mxGeometry width="50" height="50" relative="1" as="geometry">
            <mxPoint x="390" y="600" as="sourcePoint" />
            <mxPoint x="390" y="600" as="targetPoint" />
            <Array as="points">
              <mxPoint x="400" y="620" />
              <mxPoint x="470" y="600" />
              <mxPoint x="550" y="550" />
              <mxPoint x="530" y="510" />
              <mxPoint x="464" y="520" />
              <mxPoint x="370" y="570" />
            </Array>
          </mxGeometry>
        </mxCell>
        <mxCell id="xZy-GJF1oS632w6AITy--49" value="" style="ellipse;whiteSpace=wrap;html=1;aspect=fixed;fillColor=none;" vertex="1" parent="1">
          <mxGeometry x="420" y="610" width="100" height="100" as="geometry" />
        </mxCell>
        <mxCell id="xZy-GJF1oS632w6AITy--52" value="1" style="ellipse;whiteSpace=wrap;html=1;aspect=fixed;" vertex="1" parent="1">
          <mxGeometry x="670" y="340" width="40" height="40" as="geometry" />
        </mxCell>
        <mxCell id="xZy-GJF1oS632w6AITy--53" value="3" style="ellipse;whiteSpace=wrap;html=1;aspect=fixed;" vertex="1" parent="1">
          <mxGeometry x="670" y="420" width="40" height="40" as="geometry" />
        </mxCell>
        <mxCell id="xZy-GJF1oS632w6AITy--54" value="2" style="ellipse;whiteSpace=wrap;html=1;aspect=fixed;" vertex="1" parent="1">
          <mxGeometry x="740" y="380" width="40" height="40" as="geometry" />
        </mxCell>
        <mxCell id="xZy-GJF1oS632w6AITy--55" value="" style="endArrow=classic;html=1;rounded=0;" edge="1" parent="1" source="xZy-GJF1oS632w6AITy--53" target="xZy-GJF1oS632w6AITy--52">
          <mxGeometry width="50" height="50" relative="1" as="geometry">
            <mxPoint x="590" y="550" as="sourcePoint" />
            <mxPoint x="640" y="500" as="targetPoint" />
          </mxGeometry>
        </mxCell>
        <mxCell id="xZy-GJF1oS632w6AITy--56" value="" style="endArrow=classic;html=1;rounded=0;" edge="1" parent="1" source="xZy-GJF1oS632w6AITy--54" target="xZy-GJF1oS632w6AITy--53">
          <mxGeometry width="50" height="50" relative="1" as="geometry">
            <mxPoint x="590" y="550" as="sourcePoint" />
            <mxPoint x="640" y="500" as="targetPoint" />
          </mxGeometry>
        </mxCell>
        <mxCell id="xZy-GJF1oS632w6AITy--57" value="" style="endArrow=classic;html=1;rounded=0;" edge="1" parent="1" source="xZy-GJF1oS632w6AITy--52" target="xZy-GJF1oS632w6AITy--54">
          <mxGeometry width="50" height="50" relative="1" as="geometry">
            <mxPoint x="590" y="550" as="sourcePoint" />
            <mxPoint x="640" y="500" as="targetPoint" />
          </mxGeometry>
        </mxCell>
      </root>
    </mxGraphModel>
  </diagram>
</mxfile>
